<svg width="140" height="40" viewBox="0 0 140 40" fill="none" xmlns="http://www.w3.org/2000/svg">
<path d="M14.2939 0.309997C17.3599 0.309997 20.1529 0.708998 22.6729 1.507C25.1929 2.305 27.3559 3.502 29.1619 5.098C30.9679 6.694 32.3539 8.689 33.3199 11.083C34.3279 13.435 34.8319 16.186 34.8319 19.336C34.8319 22.948 34.2439 26.056 33.0679 28.66C31.8919 31.222 30.2959 33.364 28.2799 35.086C26.2639 36.766 23.8909 38.005 21.1609 38.803C18.4729 39.601 15.6169 40 12.5929 40H0.433914V0.309997H14.2939ZM9.06492 33.322H12.0259C13.7899 33.322 15.4909 33.112 17.1289 32.692C18.8089 32.23 20.2789 31.474 21.5389 30.424C22.7989 29.332 23.8069 27.904 24.5629 26.14C25.3189 24.334 25.6969 22.066 25.6969 19.336C25.6969 15.346 24.5629 12.301 22.2949 10.201C20.0269 8.059 16.9819 6.988 13.1599 6.988H9.06492V33.322ZM45.6694 0.309997L54.1114 15.745L62.6794 0.309997H72.0664L58.2064 23.62V40H49.5754V23.62L35.9674 0.309997H45.6694ZM76.723 0.309997H102.553V6.988H85.354V16.06H100.915V22.675H85.354V33.322H102.742V40H76.723V0.309997ZM109.269 0.309997H124.326C126.552 0.309997 128.505 0.645997 130.185 1.318C131.907 1.948 133.335 2.83 134.469 3.964C135.603 5.056 136.443 6.358 136.989 7.87C137.577 9.34 137.871 10.936 137.871 12.658C137.871 14.254 137.619 15.682 137.115 16.942C136.653 18.16 136.044 19.231 135.288 20.155C134.574 21.037 133.755 21.793 132.831 22.423C131.949 23.011 131.088 23.494 130.248 23.872L139.95 40H130.059L122.436 25.384H117.837V40H109.269V0.309997ZM117.837 18.769H121.239C123.507 18.769 125.355 18.307 126.783 17.383C128.253 16.459 128.988 14.926 128.988 12.784C128.988 10.894 128.4 9.445 127.224 8.437C126.09 7.387 124.41 6.862 122.184 6.862H117.837V18.769Z" fill="white"/>
</svg>
