<svg width="147" height="86" viewBox="0 0 147 86" fill="none" xmlns="http://www.w3.org/2000/svg">
<path d="M19.2939 9.31C22.3599 9.31 25.1529 9.709 27.6729 10.507C30.1929 11.305 32.3559 12.502 34.1619 14.098C35.9679 15.694 37.3539 17.689 38.3199 20.083C39.3279 22.435 39.8319 25.186 39.8319 28.336C39.8319 31.948 39.2439 35.056 38.0679 37.66C36.8919 40.222 35.2959 42.364 33.2799 44.086C31.2639 45.766 28.8909 47.005 26.1609 47.803C23.4729 48.601 20.6169 49 17.5929 49H5.43391V9.31H19.2939ZM14.0649 42.322H17.0259C18.7899 42.322 20.4909 42.112 22.1289 41.692C23.8089 41.23 25.2789 40.474 26.5389 39.424C27.7989 38.332 28.8069 36.904 29.5629 35.14C30.3189 33.334 30.6969 31.066 30.6969 28.336C30.6969 24.346 29.5629 21.301 27.2949 19.201C25.0269 17.059 21.9819 15.988 18.1599 15.988H14.0649V42.322ZM50.6694 9.31L59.1114 24.745L67.6794 9.31H77.0664L63.2064 32.62V49H54.5754V32.62L40.9674 9.31H50.6694ZM81.723 9.31H107.553V15.988H90.354V25.06H105.915V31.675H90.354V42.322H107.742V49H81.723V9.31ZM114.269 9.31H129.326C131.552 9.31 133.505 9.646 135.185 10.318C136.907 10.948 138.335 11.83 139.469 12.964C140.603 14.056 141.443 15.358 141.989 16.87C142.577 18.34 142.871 19.936 142.871 21.658C142.871 23.254 142.619 24.682 142.115 25.942C141.653 27.16 141.044 28.231 140.288 29.155C139.574 30.037 138.755 30.793 137.831 31.423C136.949 32.011 136.088 32.494 135.248 32.872L144.95 49H135.059L127.436 34.384H122.837V49H114.269V9.31ZM122.837 27.769H126.239C128.507 27.769 130.355 27.307 131.783 26.383C133.253 25.459 133.988 23.926 133.988 21.784C133.988 19.894 133.4 18.445 132.224 17.437C131.09 16.387 129.41 15.862 127.184 15.862H122.837V27.769Z" fill="white"/>
<path d="M11.7534 61.36C13.0041 61.36 14.1614 61.5373 15.2254 61.892C16.2894 62.2467 17.2041 62.7787 17.9694 63.488C18.7534 64.1787 19.3601 65.056 19.7894 66.12C20.2374 67.1653 20.4614 68.388 20.4614 69.788C20.4614 71.4867 20.2001 72.924 19.6774 74.1C19.1548 75.276 18.4454 76.228 17.5494 76.956C16.6721 77.684 15.6454 78.2067 14.4694 78.524C13.3121 78.8413 12.0801 79 10.7734 79H6.01344V61.36H11.7534ZM8.58944 76.872H10.5214C11.4174 76.872 12.2948 76.7787 13.1534 76.592C14.0121 76.3867 14.7681 76.0227 15.4214 75.5C16.0934 74.9587 16.6348 74.2307 17.0454 73.316C17.4561 72.4013 17.6614 71.2253 17.6614 69.788C17.6614 68.78 17.5121 67.884 17.2134 67.1C16.9148 66.316 16.4854 65.6627 15.9254 65.14C15.3654 64.5987 14.6841 64.188 13.8814 63.908C13.0974 63.628 12.2201 63.488 11.2494 63.488H8.58944V76.872ZM23.6456 67.016C24.0936 66.792 24.5136 66.596 24.9056 66.428C25.2976 66.2413 25.6896 66.092 26.0816 65.98C26.4736 65.868 26.8749 65.784 27.2856 65.728C27.6962 65.672 28.1442 65.644 28.6296 65.644C29.3576 65.644 30.0202 65.728 30.6176 65.896C31.2336 66.0453 31.7562 66.3067 32.1856 66.68C32.6336 67.0533 32.9789 67.548 33.2216 68.164C33.4642 68.7613 33.5856 69.5173 33.5856 70.432V79H31.5416L31.2336 77.544H31.1776C30.5989 78.16 29.9642 78.5987 29.2736 78.86C28.5829 79.1213 27.8176 79.252 26.9776 79.252C26.3429 79.252 25.7549 79.168 25.2136 79C24.6909 78.8133 24.2336 78.5613 23.8416 78.244C23.4496 77.908 23.1416 77.5067 22.9176 77.04C22.7122 76.5733 22.6096 76.0507 22.6096 75.472C22.6096 74.0907 23.1509 73.0453 24.2336 72.336C25.3349 71.608 26.7816 71.244 28.5736 71.244H31.0936V70.124C31.0936 69.172 30.8509 68.528 30.3656 68.192C29.8802 67.8373 29.2269 67.66 28.4056 67.66C27.9202 67.66 27.3602 67.744 26.7256 67.912C26.1096 68.0613 25.4002 68.36 24.5976 68.808L23.6456 67.016ZM31.1216 72.924L29.0496 72.98C27.6496 73.0173 26.6509 73.2693 26.0536 73.736C25.4749 74.184 25.1856 74.7347 25.1856 75.388C25.1856 75.78 25.2509 76.116 25.3816 76.396C25.5122 76.6573 25.6802 76.8627 25.8856 77.012C26.1096 77.1613 26.3616 77.2733 26.6416 77.348C26.9402 77.404 27.2482 77.432 27.5656 77.432C28.1816 77.432 28.8069 77.292 29.4416 77.012C30.0762 76.7133 30.6362 76.2467 31.1216 75.612V72.924ZM37.5968 79V65.84H40.0608V79H37.5968ZM38.8288 62.452C38.3994 62.452 38.0261 62.312 37.7088 62.032C37.4101 61.7333 37.2608 61.3693 37.2608 60.94C37.2608 60.5107 37.4101 60.1467 37.7088 59.848C38.0261 59.5493 38.3994 59.4 38.8288 59.4C39.2394 59.4 39.6034 59.5493 39.9208 59.848C40.2381 60.1467 40.3968 60.5107 40.3968 60.94C40.3968 61.3693 40.2381 61.7333 39.9208 62.032C39.6034 62.312 39.2394 62.452 38.8288 62.452ZM44.2074 79V59.12H46.6154V79H44.2074ZM48.8965 65.84H51.5285L54.3285 73.372L55.2805 76.508H55.3365L56.2885 73.372L58.8365 65.84H61.3565L56.2885 80.12C55.7285 81.7067 55.0192 82.948 54.1605 83.844C53.3205 84.74 52.3125 85.3933 51.1365 85.804L50.0725 83.844C50.9499 83.508 51.7245 83.0227 52.3965 82.388C53.0872 81.7533 53.6192 80.876 53.9925 79.756L54.2445 79L48.8965 65.84ZM69.9978 61.36H75.5418C76.4565 61.36 77.2871 61.4813 78.0338 61.724C78.7805 61.948 79.4245 62.2933 79.9658 62.76C80.5071 63.208 80.9271 63.768 81.2258 64.44C81.5245 65.0933 81.6738 65.8493 81.6738 66.708C81.6738 67.6413 81.5151 68.4533 81.1978 69.144C80.8805 69.816 80.4325 70.376 79.8538 70.824C79.2751 71.272 78.5938 71.608 77.8098 71.832C77.0258 72.056 76.1578 72.168 75.2058 72.168H72.5738V79H69.9978V61.36ZM72.5738 70.068H74.1698C74.8605 70.068 75.5045 70.0213 76.1018 69.928C76.6991 69.8347 77.2031 69.6667 77.6138 69.424C78.0431 69.1813 78.3791 68.8453 78.6218 68.416C78.8645 67.968 78.9858 67.408 78.9858 66.736C78.9858 66.12 78.8645 65.6067 78.6218 65.196C78.3978 64.7667 78.0991 64.4213 77.7258 64.16C77.3525 63.8987 76.9231 63.712 76.4378 63.6C75.9525 63.488 75.4578 63.432 74.9538 63.432H72.5738V70.068ZM84.2621 79V65.84H86.1101L86.5301 68.472C86.8474 67.632 87.3701 66.9507 88.0981 66.428C88.8261 65.9053 89.6661 65.644 90.6181 65.644C91.1034 65.644 91.5047 65.6813 91.8221 65.756C92.1394 65.8307 92.4287 65.924 92.6901 66.036L92.2141 68.192C91.9901 68.08 91.7381 67.9867 91.4581 67.912C91.1967 67.8373 90.8794 67.8 90.5061 67.8C89.9647 67.8 89.4607 67.8933 88.9941 68.08C88.5461 68.2667 88.1447 68.5467 87.7901 68.92C87.4541 69.2933 87.1834 69.76 86.9781 70.32C86.7914 70.8613 86.6981 71.4867 86.6981 72.196V79H84.2621ZM94.4659 67.016C94.9139 66.792 95.3339 66.596 95.7259 66.428C96.1179 66.2413 96.5099 66.092 96.9019 65.98C97.2939 65.868 97.6952 65.784 98.1059 65.728C98.5165 65.672 98.9645 65.644 99.4499 65.644C100.178 65.644 100.841 65.728 101.438 65.896C102.054 66.0453 102.577 66.3067 103.006 66.68C103.454 67.0533 103.799 67.548 104.042 68.164C104.285 68.7613 104.406 69.5173 104.406 70.432V79H102.362L102.054 77.544H101.998C101.419 78.16 100.785 78.5987 100.094 78.86C99.4032 79.1213 98.6379 79.252 97.7979 79.252C97.1632 79.252 96.5752 79.168 96.0339 79C95.5112 78.8133 95.0539 78.5613 94.6619 78.244C94.2699 77.908 93.9619 77.5067 93.7379 77.04C93.5325 76.5733 93.4299 76.0507 93.4299 75.472C93.4299 74.0907 93.9712 73.0453 95.0539 72.336C96.1552 71.608 97.6019 71.244 99.3939 71.244H101.914V70.124C101.914 69.172 101.671 68.528 101.186 68.192C100.701 67.8373 100.047 67.66 99.2259 67.66C98.7405 67.66 98.1805 67.744 97.5459 67.912C96.9299 68.0613 96.2205 68.36 95.4179 68.808L94.4659 67.016ZM101.942 72.924L99.8699 72.98C98.4699 73.0173 97.4712 73.2693 96.8739 73.736C96.2952 74.184 96.0059 74.7347 96.0059 75.388C96.0059 75.78 96.0712 76.116 96.2019 76.396C96.3325 76.6573 96.5005 76.8627 96.7059 77.012C96.9299 77.1613 97.1819 77.2733 97.4619 77.348C97.7605 77.404 98.0685 77.432 98.3859 77.432C99.0019 77.432 99.6272 77.292 100.262 77.012C100.897 76.7133 101.457 76.2467 101.942 75.612V72.924ZM106.318 65.84H108.95L111.75 73.372L112.702 76.508H112.758L113.71 73.372L116.258 65.84H118.778L113.71 80.12C113.15 81.7067 112.441 82.948 111.582 83.844C110.742 84.74 109.734 85.3933 108.558 85.804L107.494 83.844C108.372 83.508 109.146 83.0227 109.818 82.388C110.509 81.7533 111.041 80.876 111.414 79.756L111.666 79L106.318 65.84ZM131.803 72.7H122.367V72.812C122.367 74.268 122.759 75.388 123.543 76.172C124.346 76.956 125.429 77.348 126.791 77.348C127.501 77.348 128.126 77.292 128.667 77.18C129.227 77.068 129.834 76.8813 130.487 76.62L130.991 78.44C130.45 78.6827 129.806 78.8787 129.059 79.028C128.331 79.1773 127.547 79.252 126.707 79.252C125.755 79.252 124.859 79.1213 124.019 78.86C123.198 78.5987 122.47 78.1973 121.835 77.656C121.201 77.096 120.697 76.3867 120.323 75.528C119.969 74.6693 119.791 73.6427 119.791 72.448C119.791 71.4213 119.941 70.488 120.239 69.648C120.557 68.808 120.995 68.0987 121.555 67.52C122.115 66.9227 122.787 66.4653 123.571 66.148C124.374 65.812 125.27 65.644 126.259 65.644C127.099 65.644 127.855 65.784 128.527 66.064C129.218 66.344 129.806 66.736 130.291 67.24C130.777 67.744 131.15 68.3507 131.411 69.06C131.673 69.7693 131.803 70.5533 131.803 71.412V72.7ZM129.255 70.936C129.255 70.4507 129.19 70.0027 129.059 69.592C128.947 69.1627 128.761 68.7893 128.499 68.472C128.257 68.1547 127.939 67.9027 127.547 67.716C127.155 67.5293 126.679 67.436 126.119 67.436C125.093 67.436 124.253 67.7627 123.599 68.416C122.965 69.0693 122.573 69.928 122.423 70.992L129.255 70.936ZM134.657 79V65.84H136.505L136.925 68.472C137.242 67.632 137.765 66.9507 138.493 66.428C139.221 65.9053 140.061 65.644 141.013 65.644C141.498 65.644 141.899 65.6813 142.217 65.756C142.534 65.8307 142.823 65.924 143.085 66.036L142.609 68.192C142.385 68.08 142.133 67.9867 141.853 67.912C141.591 67.8373 141.274 67.8 140.901 67.8C140.359 67.8 139.855 67.8933 139.389 68.08C138.941 68.2667 138.539 68.5467 138.185 68.92C137.849 69.2933 137.578 69.76 137.373 70.32C137.186 70.8613 137.093 71.4867 137.093 72.196V79H134.657Z" fill="white"/>
</svg>
